<?xml version="1.0" encoding="UTF-8"?>
<svg version="1.1" xmlns="http://www.w3.org/2000/svg" width="612" height="408">
<path d="M0 0 C4.35393904 -0.11673963 8.70747211 -0.18743418 13.0625 -0.25 C14.90618164 -0.30027344 14.90618164 -0.30027344 16.78710938 -0.3515625 C23.77166528 -0.42686768 28.48052253 -0.46470822 34 4 C36.08868107 6.16568471 37.90249946 8.45561798 39.6875 10.875 C40.14705078 11.47441406 40.60660156 12.07382813 41.08007812 12.69140625 C43.87346973 16.36545341 46.47717286 20.13599778 49 24 C52.72406933 21.24405961 55.30670742 18.49112036 57.9375 14.6875 C66.90772705 2.05147394 66.90772705 2.05147394 72 0 C74.93261719 -0.22705078 74.93261719 -0.22705078 78.296875 -0.1953125 C80.10478516 -0.18564453 80.10478516 -0.18564453 81.94921875 -0.17578125 C83.83060547 -0.15064453 83.83060547 -0.15064453 85.75 -0.125 C87.01972656 -0.11597656 88.28945313 -0.10695312 89.59765625 -0.09765625 C92.73196093 -0.07409005 95.86588541 -0.04118832 99 0 C99 4.22528092 98.74375671 5.04518508 96 8 C95.34 8 94.68 8 94 8 C93.773125 8.52464844 93.54625 9.04929688 93.3125 9.58984375 C91.54217697 12.8407048 89.28273727 15.66342367 87 18.5625 C84.57888121 21.65807332 82.1818227 24.72726594 80 28 C79.34 28 78.68 28 78 28 C77.9071875 28.8353125 77.9071875 28.8353125 77.8125 29.6875 C76.65823021 32.97272942 74.50611114 34.607803 72 37 C70.10733816 38.93772522 68.60318793 40.78382845 67 43 C67.11156393 47.28591444 70.42250851 50.09856601 73.125 53.125 C77.25736698 57.86760953 81.03733481 62.68629385 84.5625 67.90625 C85.77000875 69.66501275 87.0922043 71.34425145 88.4375 73 C90 75 90 75 90 77 C91.485 77.495 91.485 77.495 93 78 C94.5 79.9609375 94.5 79.9609375 96 82.375 C97.79654264 85.24759683 99.50456158 87.69766098 102 90 C101.505 91.485 101.505 91.485 101 93 C96.43762069 93.08719631 91.87545614 93.14045922 87.3125 93.1875 C86.01892578 93.21263672 84.72535156 93.23777344 83.39257812 93.26367188 C82.14541016 93.27333984 80.89824219 93.28300781 79.61328125 93.29296875 C77.89298706 93.31653442 77.89298706 93.31653442 76.13793945 93.34057617 C71.98381228 92.88970809 69.29902362 91.44943688 66.515625 88.34375 C66.09796875 87.7353125 65.6803125 87.126875 65.25 86.5 C62.06960073 82.04249739 58.63206822 77.83641954 55.1484375 73.61328125 C53.07641241 71.09294527 51.03257079 68.55220993 49 66 C48.53851563 66.66644531 48.07703125 67.33289063 47.6015625 68.01953125 C31.82797787 90.30829214 31.82797787 90.30829214 23.4296875 92.74609375 C18.32492532 93.12400895 13.24153933 93.10345752 8.125 93.0625 C6.52011719 93.05573242 6.52011719 93.05573242 4.8828125 93.04882812 C2.25515014 93.03709749 -0.37239538 93.02068228 -3 93 C-3 89.594426 -2.63793578 89.19532698 -0.54296875 86.69921875 C0.25306763 85.73725586 0.25306763 85.73725586 1.06518555 84.75585938 C1.9301062 83.73202148 1.9301062 83.73202148 2.8125 82.6875 C4.00383954 81.2549327 5.19391964 79.82131721 6.3828125 78.38671875 C6.98641602 77.6601709 7.59001953 76.93362305 8.21191406 76.18505859 C11.427924 72.25506283 14.51194474 68.21939397 17.5715332 64.16674805 C18.66916567 62.74185037 19.82892924 61.36518267 21 60 C21.66 60 22.32 60 23 60 C23.2475 59.46375 23.495 58.9275 23.75 58.375 C25.73282408 54.60763425 28.00866625 51.09046712 30.875 47.9375 C32.2964207 45.99496078 32.2964207 45.99496078 31.4375 43.5 C30.13808403 40.97452743 30.13808403 40.97452743 28.2109375 39.265625 C25.5082205 36.49605634 23.37761938 33.42363736 21.1875 30.25 C17.88646508 25.53588409 14.48025142 21.1281525 10.59375 16.875 C8.22957042 14.09361226 6.30289383 11.06498599 4.359375 7.98046875 C3.07488755 5.9589032 3.07488755 5.9589032 1.328125 4.42578125 C0 3 0 3 0 0 Z " fill="#B216C8" transform="translate(385,154)"/>
<path d="M0 0 C3.45264527 1.69706293 6.39400307 3.87893022 9.44921875 6.20703125 C10.07570313 5.78550781 10.7021875 5.36398438 11.34765625 4.9296875 C12.16492188 4.38183594 12.9821875 3.83398438 13.82421875 3.26953125 C14.63632812 2.72425781 15.4484375 2.17898437 16.28515625 1.6171875 C22.11260452 -2.18012085 29.68157975 -1.4043863 36.44921875 -0.79296875 C43.05574461 0.77147252 47.7888435 5.64721803 51.44921875 11.20703125 C54.06801345 17.77898469 53.92934272 24.35602168 53.98461914 31.31933594 C54.01157841 33.57031348 54.08657478 35.81660701 54.16210938 38.06640625 C54.37975791 50.13174205 54.37975791 50.13174205 50.1015625 55.18359375 C47.80301846 57.37311714 46.50874843 58.18718802 43.44921875 59.20703125 C41.40625 59.0859375 41.40625 59.0859375 39.26171875 58.76953125 C37.37453125 58.49109375 37.37453125 58.49109375 35.44921875 58.20703125 C35.41948975 56.60263184 35.41948975 56.60263184 35.38916016 54.96582031 C35.31300895 50.99227613 35.22430633 47.01909359 35.13183594 43.04589844 C35.09358548 41.32722114 35.05872572 39.60846487 35.02734375 37.88964844 C34.98160747 35.41703085 34.92362791 32.94495512 34.86328125 30.47265625 C34.85173004 29.70584534 34.84017883 28.93903442 34.82827759 28.14898682 C34.72465828 24.39190736 34.62647383 21.35622245 32.44921875 18.20703125 C29.01121483 15.66036168 25.598156 15.69751264 21.44921875 16.20703125 C18.2896757 18.74840284 16.73380989 20.35325784 15.44921875 24.20703125 C15.37697586 26.52891773 15.36539676 28.85286902 15.38671875 31.17578125 C15.39050537 31.85249878 15.39429199 32.52921631 15.39819336 33.22644043 C15.41039893 35.38670232 15.42902546 37.54683013 15.44921875 39.70703125 C15.47580174 42.5507778 15.49580593 45.3944572 15.51171875 48.23828125 C15.52332031 49.50220703 15.53492188 50.76613281 15.546875 52.06835938 C15.44921875 55.20703125 15.44921875 55.20703125 14.44921875 58.20703125 C11.64323349 59.27773615 8.92970664 59.3422384 5.94921875 59.33203125 C5.19640625 59.33460938 4.44359375 59.3371875 3.66796875 59.33984375 C1.47169247 59.20837651 -0.4300174 58.76726451 -2.55078125 58.20703125 C-2.56536377 57.17296143 -2.57994629 56.1388916 -2.5949707 55.07348633 C-2.65309007 51.22467043 -2.73032148 47.37643126 -2.81323242 43.52807617 C-2.8464178 41.86476017 -2.87446959 40.20133329 -2.8972168 38.5378418 C-2.93088124 36.14193626 -2.98320065 33.7470409 -3.0390625 31.3515625 C-3.04545242 30.61178665 -3.05184235 29.8720108 -3.0584259 29.1098175 C-3.18447053 24.65015922 -3.8444951 21.77916101 -6.55078125 18.20703125 C-9.20020778 16.04823927 -11.33394408 16.11224398 -14.61328125 16.39453125 C-17.13712658 16.79328005 -18.38030456 17.08604779 -20.48828125 18.58203125 C-23.03909877 22.48328158 -22.76731051 26.6735215 -22.8671875 31.15625 C-22.8879686 31.92886673 -22.90874969 32.70148346 -22.93016052 33.49751282 C-22.99549163 35.96309605 -23.0544644 38.42878486 -23.11328125 40.89453125 C-23.15648212 42.56706816 -23.20009691 44.23959444 -23.24414062 45.91210938 C-23.35115615 50.01030875 -23.45246982 54.10861421 -23.55078125 58.20703125 C-29.7433018 59.940937 -35.28439436 59.25142907 -41.55078125 58.20703125 C-41.55078125 39.39703125 -41.55078125 20.58703125 -41.55078125 1.20703125 C-34.88411458 1.20703125 -28.21744792 1.20703125 -21.55078125 1.20703125 C-20.82503906 0.88476562 -20.09929687 0.5625 -19.3515625 0.23046875 C-13.44519832 -1.92778427 -5.99542073 -1.8638138 0 0 Z " fill="#F2F1F1" transform="translate(335.55078125,176.79296875)"/>
<path d="M0 0 C2.7791156 1.74833707 4.80668444 3.67974008 6.90625 6.19921875 C7.7725 7.12734375 8.63875 8.05546875 9.53125 9.01171875 C15.63574012 17.20458707 15.71421647 25.23065947 14.90625 35.19921875 C13.32014048 42.65853092 8.79101522 49.44132346 2.90625 54.19921875 C-6.54902184 59.42943218 -18.0200228 59.75361004 -28.41796875 57.46875 C-33.8617689 55.64919879 -38.08470727 53.31661399 -42.09375 49.19921875 C-42.09375 48.53921875 -42.09375 47.87921875 -42.09375 47.19921875 C-42.75375 47.19921875 -43.41375 47.19921875 -44.09375 47.19921875 C-49.43873499 35.72032111 -51.70390718 27.57932528 -47.52734375 15.32421875 C-43.91778087 7.4559618 -37.47107328 1.39323047 -29.4609375 -1.875 C-20.2830872 -4.39837647 -8.60043176 -4.19712851 0 0 Z M-28.09375 16.19921875 C-31.33958111 21.07335716 -31.64303754 26.52324749 -31.09375 32.19921875 C-29.3909884 36.85940838 -27.39124154 39.67677806 -23.09375 42.19921875 C-18.46005904 43.47087078 -14.91759419 43.42881467 -10.28125 42.13671875 C-6.34638708 39.74493933 -4.92986375 38.45900264 -3.09375 34.19921875 C-2.35943296 27.56533184 -1.89234354 21.70517151 -6.09375 16.19921875 C-9.42959894 13.71689193 -13.01165639 12.37956768 -17.09375 11.69921875 C-21.29630992 12.3996454 -24.71623493 13.54492435 -28.09375 16.19921875 Z " fill="#EFEEEE" transform="translate(273.09375,178.80078125)"/>
<path d="M0 0 C3.21554712 2.33567104 5.14449037 4.39446993 7.35546875 7.7109375 C8.09796875 8.6803125 8.84046875 9.6496875 9.60546875 10.6484375 C14.21925448 18.72256252 13.1094434 30.56566265 11.11328125 39.421875 C8.94101403 45.98346568 4.24334149 50.68278728 -1.80859375 53.83984375 C-11.0273757 57.83650602 -21.55329669 58.39150712 -31.2265625 55.72265625 C-36.32084286 53.69373818 -40.54444318 51.39806706 -44.64453125 47.7109375 C-44.64453125 47.0509375 -44.64453125 46.3909375 -44.64453125 45.7109375 C-45.30453125 45.7109375 -45.96453125 45.7109375 -46.64453125 45.7109375 C-51.38867379 33.95224133 -53.79057997 24.89666297 -48.83203125 12.71484375 C-46.55741572 7.70121202 -43.84247997 4.28365982 -39.64453125 0.7109375 C-38.65453125 0.7109375 -37.66453125 0.7109375 -36.64453125 0.7109375 C-36.64453125 0.0509375 -36.64453125 -0.6090625 -36.64453125 -1.2890625 C-25.0122645 -6.45895883 -11.05129377 -6.49358779 0 0 Z M-30.64453125 15.7109375 C-33.59091939 20.41774623 -33.92518816 24.69416934 -32.95703125 30.0859375 C-32.21358957 33.27211613 -31.50273119 34.92363759 -29.64453125 37.7109375 C-28.98453125 37.7109375 -28.32453125 37.7109375 -27.64453125 37.7109375 C-27.31453125 38.7009375 -26.98453125 39.6909375 -26.64453125 40.7109375 C-21.80389778 42.75889782 -16.74401235 42.1209135 -11.95703125 40.3359375 C-8.11107597 37.87348197 -6.628367 34.60641031 -5.16796875 30.375 C-4.1079362 24.97990895 -5.76063026 20.74390977 -7.89453125 15.8359375 C-10.99428014 12.07195671 -14.27275422 10.91416373 -19.01953125 10.2109375 C-23.83915401 10.87571305 -27.11976835 12.3284296 -30.64453125 15.7109375 Z " fill="#EFEEEE" transform="translate(208.64453125,180.2890625)"/>
<path d="M0 0 C5.94 0 11.88 0 18 0 C18.33 21.78 18.66 43.56 19 66 C27.91 65.67 36.82 65.34 46 65 C48.97 65.495 48.97 65.495 52 66 C52.98783094 68.96349281 53.13410525 70.9712663 53.125 74.0625 C53.12886719 75.37927734 53.12886719 75.37927734 53.1328125 76.72265625 C53 79 53 79 52 81 C49.27736513 81.93011338 46.75452298 82.12613497 43.89331055 82.12939453 C43.09535568 82.13254669 42.29740082 82.13569885 41.4752655 82.13894653 C40.62104507 82.1369223 39.76682465 82.13489807 38.88671875 82.1328125 C37.55505424 82.13424759 37.55505424 82.13424759 36.19648743 82.13571167 C34.31954884 82.13639149 32.44260788 82.13455099 30.56567383 82.13037109 C27.70844157 82.12503908 24.85136788 82.13031296 21.99414062 82.13671875 C20.16666632 82.13605756 18.33919212 82.13477556 16.51171875 82.1328125 C15.66357101 82.13483673 14.81542328 82.13686096 13.9415741 82.13894653 C9.2006992 82.120438 4.6514661 81.96648872 0 81 C-1.50011398 77.99977204 -1.13863602 74.91849326 -1.12939453 71.62866211 C-1.13114685 70.86919785 -1.13289917 70.10973358 -1.13470459 69.32725525 C-1.139115 66.81059501 -1.13618825 64.29400473 -1.1328125 61.77734375 C-1.1334857 60.03381842 -1.13445586 58.29029319 -1.13571167 56.54676819 C-1.13718748 52.89078885 -1.13503755 49.23483393 -1.13037109 45.57885742 C-1.12466965 40.88199137 -1.12795617 36.18518241 -1.13394356 31.48831844 C-1.1375487 27.88794012 -1.13641087 24.28757545 -1.13381577 20.68719673 C-1.13314659 18.95475826 -1.13397461 17.22231856 -1.13629532 15.48988152 C-1.13882154 13.0738685 -1.1349819 10.65794935 -1.12939453 8.24194336 C-1.13141876 7.51932312 -1.13344299 6.79670288 -1.13552856 6.05218506 C-1.11426357 1.11426357 -1.11426357 1.11426357 0 0 Z " fill="#ECEBEB" transform="translate(103,154)"/>
<path d="M0 0 C7.39262467 6.93058563 13.26757153 15.24203703 19.140625 23.45703125 C20.44922624 25.24673588 21.82062885 26.99135409 23.234375 28.69921875 C25 31 25 31 25 33 C25.99 33.33 26.98 33.66 28 34 C29.5 35.9609375 29.5 35.9609375 31 38.375 C32.79654264 41.24759683 34.50456158 43.69766098 37 46 C36.67 46.99 36.34 47.98 36 49 C31.43762069 49.08719631 26.87545614 49.14045922 22.3125 49.1875 C20.37213867 49.22520508 20.37213867 49.22520508 18.39257812 49.26367188 C17.14541016 49.27333984 15.89824219 49.28300781 14.61328125 49.29296875 C13.46641846 49.3086792 12.31955566 49.32438965 11.13793945 49.34057617 C6.98381228 48.88970809 4.29902362 47.44943688 1.515625 44.34375 C1.09796875 43.7353125 0.6803125 43.126875 0.25 42.5 C-2.93039927 38.04249739 -6.36793178 33.83641954 -9.8515625 29.61328125 C-11.92358759 27.09294527 -13.96742921 24.55220993 -16 22 C-18.31 25.3 -20.62 28.6 -23 32 C-24.33332095 29.3333581 -23.67102033 27.83319697 -23 25 C-22.34 25 -21.68 25 -21 25 C-20.67 24.01 -20.34 23.02 -20 22 C-18.54684157 20.45457754 -17.03748206 18.96155702 -15.5 17.5 C-10.19359471 12.31575656 -5.61923395 6.79771733 -1 1 C-0.67 0.67 -0.34 0.34 0 0 Z " fill="#3E0578" transform="translate(450,198)"/>
<path d="M0 0 C4.35393904 -0.11673963 8.70747211 -0.18743418 13.0625 -0.25 C14.29162109 -0.28351563 15.52074219 -0.31703125 16.78710938 -0.3515625 C25.08880984 -0.4410687 29.89035181 0.027072 35.99609375 5.9296875 C38.44954882 9.2408545 39.90747166 11.27299158 40.4375 15.4375 C40 18 40 18 39 19 C39.66 19.66 40.32 20.32 41 21 C40.06725891 22.12894876 39.12859878 23.25300876 38.1875 24.375 C37.66542969 25.00148437 37.14335937 25.62796875 36.60546875 26.2734375 C35 28 35 28 32 30 C30.79549696 32.55183404 30.79549696 32.55183404 30 35 C29.67 34.34 29.34 33.68 29 33 C28.34 33 27.68 33 27 33 C27 32.01 27 31.02 27 30 C26.4225 29.87625 25.845 29.7525 25.25 29.625 C15.72464802 26.97906889 10.89460517 17.59599836 5.89453125 9.734375 C4.10186338 6.9588266 4.10186338 6.9588266 1.76171875 4.828125 C0 3 0 3 0 0 Z " fill="#DC32D6" transform="translate(385,154)"/>
<path d="M0 0 C2.79285592 2.63769726 5.06336342 5.09595032 7.1875 8.3125 C7.785625 9.199375 8.38375 10.08625 9 11 C9.66 11 10.32 11 11 11 C10.1875 13.4375 10.1875 13.4375 9 16 C8.01 16.33 7.02 16.66 6 17 C5.731875 17.886875 5.46375 18.77375 5.1875 19.6875 C4.01757598 22.95097227 3.44077792 23.73902691 1 25.9375 C-2.2628993 28.94093984 -2.83492481 31.72805765 -4 36 C-5.64646685 37.68662458 -7.31183067 39.35511706 -9 41 C-9.185625 42.2065625 -9.185625 42.2065625 -9.375 43.4375 C-10.25896524 47.06175748 -12.47998466 48.30793947 -15.40625 50.47265625 C-17.28642333 52.27448902 -17.47278285 53.5048535 -18 56 C-18.598125 56.268125 -19.19625 56.53625 -19.8125 56.8125 C-22.62901104 58.34146314 -23.34654703 60.3553703 -24.7890625 63.125 C-26.56907478 65.88114804 -28.92230781 67.66668433 -31.51171875 69.640625 C-33.28291512 71.03674013 -33.28291512 71.03674013 -34 74 C-31.94766315 76.2477975 -30.99332739 77.0022242 -28 78 C-28 77.34 -28 76.68 -28 76 C-26.37585622 75.80522261 -24.75063577 75.61940542 -23.125 75.4375 C-21.76761719 75.28087891 -21.76761719 75.28087891 -20.3828125 75.12109375 C-18 75 -18 75 -16 76 C-15.67 75.34 -15.34 74.68 -15 74 C-11.9375 73.375 -11.9375 73.375 -9 73 C-9 71.68 -9 70.36 -9 69 C-8.01 69 -7.02 69 -6 69 C-6 67.68 -6 66.36 -6 65 C-4.68 65 -3.36 65 -2 65 C-2 64.34 -2 63.68 -2 63 C-1.01 63.33 -0.02 63.66 1 64 C-0.55778381 65.7543973 -2.12094705 67.50346011 -3.6875 69.25 C-4.99267578 70.71179688 -4.99267578 70.71179688 -6.32421875 72.203125 C-11.66046307 77.78086359 -14.85712192 79.86928121 -22.63183594 80.06689453 C-25.71383735 80.09865215 -28.79295295 80.08717156 -31.875 80.0625 C-33.47988281 80.05573242 -33.47988281 80.05573242 -35.1171875 80.04882812 C-37.74484986 80.03709749 -40.37239538 80.02068228 -43 80 C-43 76.594426 -42.63793578 76.19532698 -40.54296875 73.69921875 C-39.74693237 72.73725586 -39.74693237 72.73725586 -38.93481445 71.75585938 C-38.0698938 70.73202148 -38.0698938 70.73202148 -37.1875 69.6875 C-35.99616046 68.2549327 -34.80608036 66.82131721 -33.6171875 65.38671875 C-33.01358398 64.6601709 -32.40998047 63.93362305 -31.78808594 63.18505859 C-28.572076 59.25506283 -25.48805526 55.21939397 -22.4284668 51.16674805 C-21.33083433 49.74185037 -20.17107076 48.36518267 -19 47 C-18.34 47 -17.68 47 -17 47 C-16.7525 46.46375 -16.505 45.9275 -16.25 45.375 C-14.26717592 41.60763425 -11.99133375 38.09046712 -9.125 34.9375 C-7.7035793 32.99496078 -7.7035793 32.99496078 -8.5625 30.5 C-10.10389402 27.81931474 -11.78587793 26.15086144 -14 24 C-19 17.67521368 -19 17.67521368 -19 15 C-18.01 14.67 -17.02 14.34 -16 14 C-16 14.66 -16 15.32 -16 16 C-15.01 16.33 -14.02 16.66 -13 17 C-13 17.99 -13 18.98 -13 20 C-12.01 20 -11.02 20 -10 20 C-8.96986723 18.35178756 -7.96885372 16.68496298 -7 15 C-6.34 15 -5.68 15 -5 15 C-4.731875 14.401875 -4.46375 13.80375 -4.1875 13.1875 C-3.01506533 11.02775192 -1.80630718 9.64209744 0 8 C-0.99 7.34 -1.98 6.68 -3 6 C-2.34 5.67 -1.68 5.34 -1 5 C-0.34444881 2.47266765 -0.34444881 2.47266765 0 0 Z " fill="#6904A5" transform="translate(425,167)"/>
<path d="M0 0 C2.97 0.495 2.97 0.495 6 1 C6.185625 1.928125 6.37125 2.85625 6.5625 3.8125 C8.10727559 7.23787197 8.38621238 7.5205979 11.625 8.875 C12.73875 9.24625 13.8525 9.6175 15 10 C15 10.66 15 11.32 15 12 C15.99 12.33 16.98 12.66 18 13 C19.5 14.9609375 19.5 14.9609375 21 17.375 C22.79654264 20.24759683 24.50456158 22.69766098 27 25 C26.505 26.485 26.505 26.485 26 28 C22.06731133 28.02473868 18.13465287 28.04287835 14.2019043 28.05493164 C12.20685232 28.06242729 10.21182214 28.07513345 8.21679688 28.08789062 C6.96318359 28.09111328 5.70957031 28.09433594 4.41796875 28.09765625 C3.26063232 28.10289307 2.1032959 28.10812988 0.91088867 28.11352539 C-2 28 -2 28 -5 27 C-5.73046875 24.93359375 -5.73046875 24.93359375 -6.1875 22.4375 C-6.34605469 21.61121094 -6.50460937 20.78492188 -6.66796875 19.93359375 C-6.77753906 19.29550781 -6.88710938 18.65742188 -7 18 C-6.34 18 -5.68 18 -5 18 C-5.33 17.34 -5.66 16.68 -6 16 C-7.32 16 -8.64 16 -10 16 C-8.6970768 13.093479 -7.29126619 11.19164592 -5 9 C-4.67 8.34 -4.34 7.68 -4 7 C-3.34 7 -2.68 7 -2 7 C-1.34 4.69 -0.68 2.38 0 0 Z " fill="#C321CB" transform="translate(460,219)"/>
<path d="M0 0 C1.21171875 0.00322266 2.4234375 0.00644531 3.671875 0.00976562 C4.94289063 0.01814453 6.21390625 0.02652344 7.5234375 0.03515625 C8.8021875 0.03966797 10.0809375 0.04417969 11.3984375 0.04882812 C14.56515042 0.06064422 17.73177106 0.0771181 20.8984375 0.09765625 C20.8984375 4.32293717 20.64219421 5.14284133 17.8984375 8.09765625 C17.2384375 8.09765625 16.5784375 8.09765625 15.8984375 8.09765625 C15.6715625 8.62230469 15.4446875 9.14695313 15.2109375 9.6875 C13.44061447 12.93836105 11.18117477 15.76107992 8.8984375 18.66015625 C6.47731871 21.75572957 4.0802602 24.82492219 1.8984375 28.09765625 C1.2384375 28.09765625 0.5784375 28.09765625 -0.1015625 28.09765625 C-0.194375 28.93296875 -0.194375 28.93296875 -0.2890625 29.78515625 C-1.44953584 33.08804192 -3.57282254 34.6788615 -6.1015625 37.09765625 C-8.47161759 39.73268644 -10.78911464 42.41201796 -13.1015625 45.09765625 C-14.2265625 41.34765625 -14.2265625 41.34765625 -13.1015625 39.09765625 C-12.1115625 39.09765625 -11.1215625 39.09765625 -10.1015625 39.09765625 C-9.7715625 37.44765625 -9.4415625 35.79765625 -9.1015625 34.09765625 C-9.7615625 33.76765625 -10.4215625 33.43765625 -11.1015625 33.09765625 C-10.1115625 32.60265625 -10.1115625 32.60265625 -9.1015625 32.09765625 C-8.1115625 32.42765625 -7.1215625 32.75765625 -6.1015625 33.09765625 C-6.1015625 32.43765625 -6.1015625 31.77765625 -6.1015625 31.09765625 C-5.4415625 31.09765625 -4.7815625 31.09765625 -4.1015625 31.09765625 C-3.7715625 29.44765625 -3.4415625 27.79765625 -3.1015625 26.09765625 C-1.4515625 25.76765625 0.1984375 25.43765625 1.8984375 25.09765625 C1.8984375 24.10765625 1.8984375 23.11765625 1.8984375 22.09765625 C2.8884375 22.09765625 3.8784375 22.09765625 4.8984375 22.09765625 C4.5684375 20.77765625 4.2384375 19.45765625 3.8984375 18.09765625 C4.5584375 18.09765625 5.2184375 18.09765625 5.8984375 18.09765625 C5.8984375 17.10765625 5.8984375 16.11765625 5.8984375 15.09765625 C6.5584375 15.09765625 7.2184375 15.09765625 7.8984375 15.09765625 C7.8984375 11.46765625 7.8984375 7.83765625 7.8984375 4.09765625 C3.75750052 3.88795066 3.75750052 3.88795066 -0.1015625 5.09765625 C-1.0709375 5.22140625 -2.0403125 5.34515625 -3.0390625 5.47265625 C-6.19434662 6.11659179 -7.16534248 6.62359734 -9.1015625 9.09765625 C-8.4415625 9.09765625 -7.7815625 9.09765625 -7.1015625 9.09765625 C-7.4315625 10.74765625 -7.7615625 12.39765625 -8.1015625 14.09765625 C-8.8440625 14.20078125 -9.5865625 14.30390625 -10.3515625 14.41015625 C-13.27170268 15.14019129 -14.83343804 16.16555023 -17.1015625 18.09765625 C-17.88104031 15.81016907 -18.2130468 14.48439143 -17.53515625 12.1328125 C-13.59393144 4.3276418 -9.01330152 -0.04211823 0 0 Z " fill="#F15FA6" transform="translate(463.1015625,153.90234375)"/>
<path d="M0 0 C0.66 0.33 1.32 0.66 2 1 C1.34 2.65 0.68 4.3 0 6 C-0.66 6 -1.32 6 -2 6 C-2.0825 6.680625 -2.165 7.36125 -2.25 8.0625 C-3.94395593 14.69716072 -7.19707632 18.58920593 -12.51171875 22.640625 C-14.28291512 24.03674013 -14.28291512 24.03674013 -15 27 C-12.94766315 29.2477975 -11.99332739 30.0022242 -9 31 C-9 30.34 -9 29.68 -9 29 C-7.37585622 28.80522261 -5.75063577 28.61940542 -4.125 28.4375 C-3.22007812 28.33308594 -2.31515625 28.22867188 -1.3828125 28.12109375 C1 28 1 28 3 29 C3.33 28.34 3.66 27.68 4 27 C7.0625 26.375 7.0625 26.375 10 26 C10 24.68 10 23.36 10 22 C10.99 22 11.98 22 13 22 C13 20.68 13 19.36 13 18 C14.32 18 15.64 18 17 18 C17 17.34 17 16.68 17 16 C17.99 16.33 18.98 16.66 20 17 C18.44221619 18.7543973 16.87905295 20.50346011 15.3125 22.25 C14.44238281 23.22453125 13.57226562 24.1990625 12.67578125 25.203125 C7.33953693 30.78086359 4.14287808 32.86928121 -3.63183594 33.06689453 C-6.71383735 33.09865215 -9.79295295 33.08717156 -12.875 33.0625 C-14.47988281 33.05573242 -14.47988281 33.05573242 -16.1171875 33.04882812 C-18.74484986 33.03709749 -21.37239538 33.02068228 -24 33 C-24 29.594426 -23.63793578 29.19532698 -21.54296875 26.69921875 C-21.0121167 26.05791016 -20.48126465 25.41660156 -19.93432617 24.75585938 C-19.35787354 24.07330078 -18.7814209 23.39074219 -18.1875 22.6875 C-16.9989742 21.25475657 -15.81149456 19.82114475 -14.625 18.38671875 C-14.02171875 17.6601709 -13.4184375 16.93362305 -12.796875 16.18505859 C-10.03968806 12.83222937 -7.35965619 9.42073421 -4.6875 6 C-4.21401123 5.39502686 -3.74052246 4.79005371 -3.25268555 4.16674805 C-2.16723919 2.77878358 -1.08341519 1.38955054 0 0 Z " fill="#4B0F91" transform="translate(406,214)"/>
<path d="M0 0 C2.92879371 0.62759865 5.36095629 1.58622659 8 3 C8 3.66 8 4.32 8 5 C8.99 5 9.98 5 11 5 C12.60546875 7.1875 12.60546875 7.1875 14.1875 10 C14.71730469 10.928125 15.24710937 11.85625 15.79296875 12.8125 C16.19128906 13.534375 16.58960938 14.25625 17 15 C15.02 14.34 13.04 13.68 11 13 C10.67 11.02 10.34 9.04 10 7 C7.03 6.505 7.03 6.505 4 6 C3.896875 6.7425 3.79375 7.485 3.6875 8.25 C2.62497354 12.50010584 0.41827355 14.59145374 -2.6875 17.625 C-5.23253889 19.68634745 -5.23253889 19.68634745 -5 22 C-3.68 21.67 -2.36 21.34 -1 21 C-1 21.99 -1 22.98 -1 24 C-1.66 24 -2.32 24 -3 24 C-2.34 26.64 -1.68 29.28 -1 32 C-4.6024118 28.59772219 -7.28027138 25.1264848 -10 21 C-10.66 20.67 -11.32 20.34 -12 20 C-12 17.69 -12 15.38 -12 13 C-11.34 13 -10.68 13 -10 13 C-10 12.34 -10 11.68 -10 11 C-9.0409375 10.5978125 -9.0409375 10.5978125 -8.0625 10.1875 C-5.66868314 9.11332248 -5.66868314 9.11332248 -5 6 C-3.68733482 4.64631404 -2.35432675 3.31200404 -1 2 C-0.67 1.34 -0.34 0.68 0 0 Z " fill="#8709AE" transform="translate(456,213)"/>
<path d="M0 0 C4.71099727 2.28819867 7.6425456 5.37312891 10 10 C10.375 13.375 10.375 13.375 10 16 C9.67 16.33 9.34 16.66 9 17 C9.66 17.66 10.32 18.32 11 19 C10.06725891 20.12894876 9.12859878 21.25300876 8.1875 22.375 C7.66542969 23.00148437 7.14335937 23.62796875 6.60546875 24.2734375 C5 26 5 26 2 28 C0.79549696 30.55183404 0.79549696 30.55183404 0 33 C-0.33 32.34 -0.66 31.68 -1 31 C-1.66 31 -2.32 31 -3 31 C-3 30.01 -3 29.02 -3 28 C-3.5775 27.87625 -4.155 27.7525 -4.75 27.625 C-9.17074147 26.39701626 -11.70165258 24.54059125 -14.6875 21.0625 C-15.59048828 20.02802734 -15.59048828 20.02802734 -16.51171875 18.97265625 C-18 17 -18 17 -19 14 C-12.243 15.631 -12.243 15.631 -10.3125 18.5625 C-9.879375 19.366875 -9.44625 20.17125 -9 21 C-2.95697101 20.76869407 -2.95697101 20.76869407 2.5 18.4375 C4.64039722 14.95935451 4.72924021 12.06139684 5 8 C4.34 8 3.68 8 3 8 C2.67 6.02 2.34 4.04 2 2 C1.34 2 0.68 2 0 2 C0 1.34 0 0.68 0 0 Z " fill="#B015CA" transform="translate(415,156)"/>
<path d="M0 0 C4.04327432 0.91892598 5.66586274 1.5513014 8.1875 4.9375 C9.0846875 6.4534375 9.0846875 6.4534375 10 8 C10.86625 8.86625 10.86625 8.86625 11.75 9.75 C13 11 13 11 13 13 C3.76 13 -5.48 13 -15 13 C-12 11 -12 11 -10 11 C-10 10.34 -10 9.68 -10 9 C-8.57421875 7.8515625 -8.57421875 7.8515625 -6.6875 6.625 C-3.86426889 4.6990306 -1.84580454 2.93157192 0 0 Z " fill="#E865C8" transform="translate(474,233)"/>
<path d="M0 0 C2.64 0.99 5.28 1.98 8 3 C8 3.66 8 4.32 8 5 C8.99 5.33 9.98 5.66 11 6 C11 6.66 11 7.32 11 8 C8 9 8 9 6 9 C5.21625 9.78375 4.4325 10.5675 3.625 11.375 C1.37938667 13.62061333 -0.12018877 14.82674357 -3 16 C-3 16.66 -3 17.32 -3 18 C-3.66 18.33 -4.32 18.66 -5 19 C2.92 19.33 10.84 19.66 19 20 C19 20.33 19 20.66 19 21 C15.06731133 21.02473868 11.13465287 21.04287835 7.2019043 21.05493164 C5.20685232 21.06242729 3.21182214 21.07513345 1.21679688 21.08789062 C-0.03681641 21.09111328 -1.29042969 21.09433594 -2.58203125 21.09765625 C-3.73936768 21.10289307 -4.8967041 21.10812988 -6.08911133 21.11352539 C-9 21 -9 21 -12 20 C-12.6875 17.9375 -12.6875 17.9375 -13 16 C-12.0925 16.04125 -11.185 16.0825 -10.25 16.125 C-7.04776017 16.00183693 -5.53456722 15.90092541 -3 14 C-1.84979475 11.75256244 -1.84979475 11.75256244 -1 9 C-0.4682952 7.72496661 0.07370873 6.45418784 0.625 5.1875 C1.07875 4.135625 1.5325 3.08375 2 2 C1.34 2 0.68 2 0 2 C0 1.34 0 0.68 0 0 Z " fill="#C045AE" transform="translate(467,226)"/>
<path d="M0 0 C1.32 0.33 2.64 0.66 4 1 C4 2.32 4 3.64 4 5 C4.99 5.33 5.98 5.66 7 6 C6.01 6 5.02 6 4 6 C3.731875 6.804375 3.46375 7.60875 3.1875 8.4375 C2.795625 9.283125 2.40375 10.12875 2 11 C1.01 11.33 0.02 11.66 -1 12 C-1.73323796 14.01508358 -1.73323796 14.01508358 -2 16 C-3.32 16.33 -4.64 16.66 -6 17 C-6 17.66 -6 18.32 -6 19 C-7.32 19.33 -8.64 19.66 -10 20 C-11.125 17.75 -11.125 17.75 -12 15 C-11.125 12.6875 -11.125 12.6875 -10 11 C-9.34 11 -8.68 11 -8 11 C-8 10.34 -8 9.68 -8 9 C-7.01 9 -6.02 9 -5 9 C-4.5978125 7.7934375 -4.5978125 7.7934375 -4.1875 6.5625 C-3.795625 5.716875 -3.40375 4.87125 -3 4 C-2.01 3.67 -1.02 3.34 0 3 C0 2.01 0 1.02 0 0 Z " fill="#5D0393" transform="translate(452,207)"/>
<path d="M0 0 C1.32 0.99 2.64 1.98 4 3 C3.48050781 3.64066406 2.96101563 4.28132812 2.42578125 4.94140625 C-0.7910981 8.93128803 -3.98099936 12.8926327 -6.875 17.125 C-7.57625 18.07375 -8.2775 19.0225 -9 20 C-9.66 20 -10.32 20 -11 20 C-11.061875 20.556875 -11.12375 21.11375 -11.1875 21.6875 C-12.34797334 24.99038567 -14.47126004 26.58120525 -17 29 C-19.37005509 31.63503019 -21.68755214 34.31436171 -24 37 C-25.125 33.25 -25.125 33.25 -24 31 C-23.01 31 -22.02 31 -21 31 C-20.67 29.35 -20.34 27.7 -20 26 C-20.66 25.67 -21.32 25.34 -22 25 C-21.34 24.67 -20.68 24.34 -20 24 C-19.01 24.33 -18.02 24.66 -17 25 C-17 24.34 -17 23.68 -17 23 C-16.34 23 -15.68 23 -15 23 C-14.67 21.35 -14.34 19.7 -14 18 C-12.35 17.67 -10.7 17.34 -9 17 C-9 16.01 -9 15.02 -9 14 C-8.01 14 -7.02 14 -6 14 C-6.33 12.68 -6.66 11.36 -7 10 C-6.34 10 -5.68 10 -5 10 C-5 9.01 -5 8.02 -5 7 C-4.34 7 -3.68 7 -3 7 C-2.67 5.35 -2.34 3.7 -2 2 C-1.34 2 -0.68 2 0 2 C0 1.34 0 0.68 0 0 Z " fill="#AB2F8F" transform="translate(474,162)"/>
<path d="M0 0 C0.66 0.33 1.32 0.66 2 1 C2 1.66 2 2.32 2 3 C2.99 3 3.98 3 5 3 C6.60546875 5.1875 6.60546875 5.1875 8.1875 8 C8.71730469 8.928125 9.24710937 9.85625 9.79296875 10.8125 C10.19128906 11.534375 10.58960938 12.25625 11 13 C9.02 12.34 7.04 11.68 5 11 C4.67 9.02 4.34 7.04 4 5 C1.03 4.505 1.03 4.505 -2 4 C-2.103125 4.7425 -2.20625 5.485 -2.3125 6.25 C-3.37395085 10.4958034 -5.54839513 12.56940001 -8.6875 15.5625 C-11.34413022 17.80274518 -11.34413022 17.80274518 -11 21 C-11.66 21 -12.32 21 -13 21 C-14.00449686 16.68066349 -14.33267768 13.88779613 -12 10 C-9.875 9.1875 -9.875 9.1875 -8 9 C-8 8.01 -8 7.02 -8 6 C-6.35 6 -4.7 6 -3 6 C-3 5.01 -3 4.02 -3 3 C-2.01 3 -1.02 3 0 3 C0 2.01 0 1.02 0 0 Z " fill="#A60EBE" transform="translate(462,215)"/>
<path d="M0 0 C0.33 0.99 0.66 1.98 1 3 C0.34 3 -0.32 3 -1 3 C-0.67 4.32 -0.34 5.64 0 7 C-0.99 7 -1.98 7 -3 7 C-3 7.99 -3 8.98 -3 10 C-4.65 10.33 -6.3 10.66 -8 11 C-8.33 12.65 -8.66 14.3 -9 16 C-9.66 16 -10.32 16 -11 16 C-11 16.66 -11 17.32 -11 18 C-12.32 18 -13.64 18 -15 18 C-14.814375 18.61875 -14.62875 19.2375 -14.4375 19.875 C-14 22 -14 22 -15 24 C-15.99 24 -16.98 24 -18 24 C-18 24.66 -18 25.32 -18 26 C-18.66 26 -19.32 26 -20 26 C-19.505 21.545 -19.505 21.545 -19 17 C-18.34 17 -17.68 17 -17 17 C-16.773125 16.401875 -16.54625 15.80375 -16.3125 15.1875 C-15 13 -15 13 -12.375 11.4375 C-11.59125 10.963125 -10.8075 10.48875 -10 10 C-10 9.01 -10 8.02 -10 7 C-8.35 7.33 -6.7 7.66 -5 8 C-4.54625 6.865625 -4.0925 5.73125 -3.625 4.5625 C-2 1 -2 1 0 0 Z " fill="#DA25CD" transform="translate(468,169)"/>
<path d="M0 0 C3 2 3 2 3.44140625 3.91015625 C3.48136719 4.62042969 3.52132813 5.33070313 3.5625 6.0625 C3.706875 7.361875 3.85125 8.66125 4 10 C4.66 10.33 5.32 10.66 6 11 C5.45730469 11.37511719 4.91460937 11.75023437 4.35546875 12.13671875 C0.15787175 15.13932417 -2.38278512 17.51334591 -5 22 C-7.6875 23.3125 -7.6875 23.3125 -10 24 C-9.75 20.625 -9.75 20.625 -9 17 C-7.0625 15.8125 -7.0625 15.8125 -5 15 C-3.90833725 13.06669397 -3.90833725 13.06669397 -3 11 C-1.375 9.25 -1.375 9.25 0 8 C-0.99 7.34 -1.98 6.68 -3 6 C-2.34 5.67 -1.68 5.34 -1 5 C-0.34444881 2.47266765 -0.34444881 2.47266765 0 0 Z " fill="#8E08BA" transform="translate(425,167)"/>
<path d="M0 0 C1 2 1 2 0.875 3.8125 C0 6 0 6 -2.5 8.4375 C-5.19630428 10.70447896 -5.19630428 10.70447896 -5.375 13.4375 C-6.25896524 17.06175748 -8.47998466 18.30793947 -11.40625 20.47265625 C-13.27147688 22.26016534 -13.6103614 23.48358404 -14 26 C-14.99 26 -15.98 26 -17 26 C-17 25.01 -17 24.02 -17 23 C-16.34 23 -15.68 23 -15 23 C-14.85304688 22.443125 -14.70609375 21.88625 -14.5546875 21.3125 C-12.06765244 12.85086346 -7.34024276 6.97794318 -1 1 C-0.67 0.67 -0.34 0.34 0 0 Z " fill="#8A0FBA" transform="translate(421,197)"/>
<path d="M0 0 C1.21171875 0.00322266 2.4234375 0.00644531 3.671875 0.00976562 C4.94289063 0.01814453 6.21390625 0.02652344 7.5234375 0.03515625 C8.8021875 0.03966797 10.0809375 0.04417969 11.3984375 0.04882812 C14.56515042 0.06064422 17.73177106 0.0771181 20.8984375 0.09765625 C20.8984375 4.32293717 20.64219421 5.14284133 17.8984375 8.09765625 C17.2384375 8.09765625 16.5784375 8.09765625 15.8984375 8.09765625 C15.5684375 8.75765625 15.2384375 9.41765625 14.8984375 10.09765625 C14.7109375 7.22265625 14.7109375 7.22265625 14.8984375 4.09765625 C15.8884375 3.43765625 16.8784375 2.77765625 17.8984375 2.09765625 C18.5584375 2.42765625 19.2184375 2.75765625 19.8984375 3.09765625 C19.8984375 2.43765625 19.8984375 1.77765625 19.8984375 1.09765625 C16.71067039 1.23798117 13.523299 1.38592269 10.3359375 1.53515625 C9.44068359 1.57447266 8.54542969 1.61378906 7.62304688 1.65429688 C2.6526156 1.89098408 -2.18979769 2.29587297 -7.1015625 3.09765625 C-7.1015625 3.75765625 -7.1015625 4.41765625 -7.1015625 5.09765625 C-8.4215625 5.42765625 -9.7415625 5.75765625 -11.1015625 6.09765625 C-11.4315625 7.41765625 -11.7615625 8.73765625 -12.1015625 10.09765625 C-13.4215625 10.42765625 -14.7415625 10.75765625 -16.1015625 11.09765625 C-14.66470892 6.06866871 -12.15919581 4.14088123 -8.1015625 1.09765625 C-5.33538687 -0.28543156 -3.0913825 -0.01444571 0 0 Z " fill="#863B58" transform="translate(463.1015625,153.90234375)"/>
<path d="M0 0 C1.65 1.65 3.3 3.3 5 5 C4.0409375 5.37125 4.0409375 5.37125 3.0625 5.75 C2.381875 6.1625 1.70125 6.575 1 7 C0.87625 7.598125 0.7525 8.19625 0.625 8.8125 C-0.38910365 12.36186277 -3.11891407 13.79321078 -6 16 C-8 14 -8 14 -8.0625 11.375 C-6.5471726 6.56160709 -3.47136485 3.57106463 0 0 Z " fill="#37026E" transform="translate(450,198)"/>
<path d="M0 0 C0.66 0.33 1.32 0.66 2 1 C1.34 2.65 0.68 4.3 0 6 C-0.66 6 -1.32 6 -2 6 C-2.0825 6.680625 -2.165 7.36125 -2.25 8.0625 C-4.15862982 15.5379668 -7.69648553 18.99969274 -14 23 C-11.86216326 13.64696425 -6.12653676 7.12144444 0 0 Z " fill="#610D9B" transform="translate(406,214)"/>
<path d="M0 0 C1 3 1 3 0.14453125 5.15625 C-0.29503906 5.9296875 -0.73460937 6.703125 -1.1875 7.5 C-1.82751953 8.66015625 -1.82751953 8.66015625 -2.48046875 9.84375 C-4.11658403 12.16543544 -5.55024311 13.5665806 -8 15 C-10.75 14.1875 -10.75 14.1875 -13 13 C-13 11 -13 11 -10.75 8.5625 C-8.55760121 6.51958294 -6.43520328 4.72820878 -4 3 C-3.2575 2.443125 -2.515 1.88625 -1.75 1.3125 C-0.88375 0.6628125 -0.88375 0.6628125 0 0 Z " fill="#DB36D0" transform="translate(468,228)"/>
<path d="M0 0 C2.97 0.495 2.97 0.495 6 1 C5 4 5 4 2.625 5.75 C-0.28105855 7.88733031 -0.28105855 7.88733031 -1.4375 11.625 C-3 15 -3 15 -6.1875 16.4375 C-7.115625 16.623125 -8.04375 16.80875 -9 17 C-9 13 -9 13 -7.0625 10.875 C-6.381875 10.25625 -5.70125 9.6375 -5 9 C-4.67 8.34 -4.34 7.68 -4 7 C-3.34 7 -2.68 7 -2 7 C-1.34 4.69 -0.68 2.38 0 0 Z " fill="#AB15C0" transform="translate(460,219)"/>
<path d="M0 0 C0.33 0 0.66 0 1 0 C1.4375 3.0625 1.4375 3.0625 1 7 C-0.5968576 9.0578926 -2.3205426 10.70204163 -4.2734375 12.421875 C-6.22730523 14.08104535 -6.22730523 14.08104535 -8 17 C-8.66 16.67 -9.32 16.34 -10 16 C-10 14.68 -10 13.36 -10 12 C-11.41977909 9.77256213 -11.41977909 9.77256213 -13 8 C-11.906875 7.9175 -10.81375 7.835 -9.6875 7.75 C-5.96556057 7.37989701 -5.96556057 7.37989701 -4.1875 4.9375 C-3.795625 4.298125 -3.40375 3.65875 -3 3 C-2.34 3 -1.68 3 -1 3 C-0.67 2.01 -0.34 1.02 0 0 Z " fill="#570194" transform="translate(426,185)"/>
<path d="M0 0 C6.757 1.631 6.757 1.631 8.6875 4.5625 C9.120625 5.366875 9.55375 6.17125 10 7 C12.64 6.67 15.28 6.34 18 6 C17.01906046 8.45234885 16.31296172 9.7809268 14.125 11.3125 C11.52296321 12.15433543 10.54707671 11.95337508 8 11 C6.11328125 9.2578125 6.11328125 9.2578125 4.3125 7.125 C3.40951172 6.07699219 3.40951172 6.07699219 2.48828125 5.0078125 C1 3 1 3 0 0 Z " fill="#C224C9" transform="translate(396,170)"/>
<path d="M0 0 C3.35414799 -0.02929977 6.70826253 -0.0468989 10.0625 -0.0625 C11.00544922 -0.07087891 11.94839844 -0.07925781 12.91992188 -0.08789062 C18.0630768 -0.10581103 22.93258427 0.10740389 28 1 C28 1.66 28 2.32 28 3 C23.24816357 3.7248564 19.69354748 4.14476768 15 3 C12.00495076 2.6192734 9.00337125 2.30753475 6 2 C5.67 3.32 5.34 4.64 5 6 C4.67 5.34 4.34 4.68 4 4 C1.98330173 2.86649466 1.98330173 2.86649466 0 2 C0 1.34 0 0.68 0 0 Z " fill="#DF4AC0" transform="translate(387,155)"/>
<path d="M0 0 C3.79379058 1.49041773 5.68343758 3.69062512 8 7 C8 7.66 8 8.32 8 9 C3.05 9 -1.9 9 -7 9 C-5.35 7.35 -3.7 5.7 -2 4 C-0.70480005 1.83379456 -0.70480005 1.83379456 0 0 Z " fill="#F785CF" transform="translate(479,237)"/>
<path d="M0 0 C0.15082031 0.61746094 0.30164063 1.23492187 0.45703125 1.87109375 C0.97375279 4.00371969 0.97375279 4.00371969 1.6875 6.0625 C2 8 2 8 0 11 C-1.66666667 11.33333333 -3.33333333 11.66666667 -5 12 C-5.99 13.485 -5.99 13.485 -7 15 C-7.99 15 -8.98 15 -10 15 C-9.45230629 10.81761166 -7.10111111 8.40131455 -4.4375 5.25 C-3.19806641 3.77273437 -3.19806641 3.77273437 -1.93359375 2.265625 C-1.29550781 1.51796875 -0.65742188 0.7703125 0 0 Z " fill="#D927C2" transform="translate(446,165)"/>
<path d="M0 0 C1.33333333 1.33333333 2.66666667 2.66666667 4 4 C4.5775 4.515625 5.155 5.03125 5.75 5.5625 C7 7 7 7 7 10 C6.01 11.485 6.01 11.485 5 13 C4.34 13 3.68 13 3 13 C2.566875 14.4540625 2.566875 14.4540625 2.125 15.9375 C1 19 1 19 -1 20 C-1.3704698 12.46711409 -1.3704698 12.46711409 0.4375 10.1875 C0.953125 9.795625 1.46875 9.40375 2 9 C2.33 8.01 2.66 7.02 3 6 C2.34 6 1.68 6 1 6 C0.67 4.02 0.34 2.04 0 0 Z " fill="#6A059A" transform="translate(428,171)"/>
<path d="M0 0 C2.1328125 0.39453125 2.1328125 0.39453125 4 1 C3.06725891 2.12894876 2.12859878 3.25300876 1.1875 4.375 C0.66542969 5.00148437 0.14335937 5.62796875 -0.39453125 6.2734375 C-2 8 -2 8 -5 10 C-6.20450304 12.55183404 -6.20450304 12.55183404 -7 15 C-7.33 14.34 -7.66 13.68 -8 13 C-8.66 13 -9.32 13 -10 13 C-10 12.01 -10 11.02 -10 10 C-11.32 9.67 -12.64 9.34 -14 9 C-12.72125 8.9175 -11.4425 8.835 -10.125 8.75 C-7.93775633 8.52270014 -7.93775633 8.52270014 -6 8 C-4.6501992 6.21734114 -4.6501992 6.21734114 -4 4 C-2.125 1.6875 -2.125 1.6875 0 0 Z " fill="#A00FC0" transform="translate(422,174)"/>
<path d="M0 0 C4.43744539 -0.05793591 8.87479389 -0.09357467 13.3125 -0.125 C14.57513672 -0.14175781 15.83777344 -0.15851563 17.13867188 -0.17578125 C18.95141602 -0.18544922 18.95141602 -0.18544922 20.80078125 -0.1953125 C21.91622314 -0.20578613 23.03166504 -0.21625977 24.1809082 -0.22705078 C27 0 27 0 30 2 C16.14 1.505 16.14 1.505 2 1 C3.65 2.65 5.3 4.3 7 6 C9 9 9 9 8.625 11.1875 C8.41875 11.785625 8.2125 12.38375 8 13 C7.59007812 12.44570312 7.18015625 11.89140625 6.7578125 11.3203125 C6.21898437 10.59585938 5.68015625 9.87140625 5.125 9.125 C4.32449219 8.04605469 4.32449219 8.04605469 3.5078125 6.9453125 C2.00126838 4.91747368 2.00126838 4.91747368 0 3 C0 2.01 0 1.02 0 0 Z " fill="#8B3A70" transform="translate(385,154)"/>
<path d="M0 0 C0 3 0 3 -2 6 C-2.66 6 -3.32 6 -4 6 C-4.33 7.32 -4.66 8.64 -5 10 C-6.32 10.33 -7.64 10.66 -9 11 C-9 11.66 -9 12.32 -9 13 C-10.32 13.33 -11.64 13.66 -13 14 C-12.79125788 10.20897378 -12.15469977 9.13960711 -9.27734375 6.54296875 C-8.17417481 5.7436667 -7.06043048 4.95879282 -5.9375 4.1875 C-5.36966797 3.78080078 -4.80183594 3.37410156 -4.21679688 2.95507812 C-2.82011523 1.95744838 -1.41120009 0.97698467 0 0 Z " fill="#65039A" transform="translate(455,213)"/>
<path d="M0 0 C0.66 0.33 1.32 0.66 2 1 C0.68 2.32 -0.64 3.64 -2 5 C-1.34 5 -0.68 5 0 5 C-0.33 6.65 -0.66 8.3 -1 10 C-1.7425 10.103125 -2.485 10.20625 -3.25 10.3125 C-6.17014018 11.04253504 -7.73187554 12.06789398 -10 14 C-10.75 12.25 -10.75 12.25 -11 10 C-9.14944202 7.76656796 -7.59616917 6.29808458 -5 5 C-4.67 4.01 -4.34 3.02 -4 2 C-2.0625 0.75 -2.0625 0.75 0 0 Z " fill="#E434BA" transform="translate(456,158)"/>
<path d="M0 0 C1.32 0.99 2.64 1.98 4 3 C2.70984254 4.62619848 1.41782303 6.25091983 0.125 7.875 C-0.59429687 8.77992188 -1.31359375 9.68484375 -2.0546875 10.6171875 C-4 13 -4 13 -6 15 C-6.33 13.35 -6.66 11.7 -7 10 C-6.34 10 -5.68 10 -5 10 C-5 9.01 -5 8.02 -5 7 C-4.34 7 -3.68 7 -3 7 C-2.67 5.35 -2.34 3.7 -2 2 C-1.34 2 -0.68 2 0 2 C0 1.34 0 0.68 0 0 Z " fill="#CA4E8F" transform="translate(474,162)"/>
<path d="M0 0 C0.66 0.99 1.32 1.98 2 3 C-0.75 8.875 -0.75 8.875 -3 10 C-5.3329866 10.04022391 -7.66706666 10.04320247 -10 10 C-6.66666667 6.66666667 -3.33333333 3.33333333 0 0 Z " fill="#F058D4" transform="translate(474,233)"/>
<path d="M0 0 C1.32 0 2.64 0 4 0 C4.33 1.32 4.66 2.64 5 4 C6.98 3.34 8.96 2.68 11 2 C11 2.99 11 3.98 11 5 C10.34 5 9.68 5 9 5 C9.66 7.64 10.32 10.28 11 13 C7.39986155 9.59986924 4.67818358 6.1558021 2 2 C1.34 1.34 0.68 0.68 0 0 Z " fill="#882288" transform="translate(444,232)"/>
<path d="M0 0 C0.66 0.33 1.32 0.66 2 1 C2 1.66 2 2.32 2 3 C2.99 3 3.98 3 5 3 C6.60546875 5.1875 6.60546875 5.1875 8.1875 8 C8.71730469 8.928125 9.24710937 9.85625 9.79296875 10.8125 C10.19128906 11.534375 10.58960938 12.25625 11 13 C9.02 12.34 7.04 11.68 5 11 C4.67 9.02 4.34 7.04 4 5 C1.69 5 -0.62 5 -3 5 C-3 4.34 -3 3.68 -3 3 C-2.01 3 -1.02 3 0 3 C0 2.01 0 1.02 0 0 Z " fill="#992B9A" transform="translate(462,215)"/>
<path d="M0 0 C0.33 0.99 0.66 1.98 1 3 C0.34 3 -0.32 3 -1 3 C-0.67 4.32 -0.34 5.64 0 7 C-0.99 7 -1.98 7 -3 7 C-3 7.99 -3 8.98 -3 10 C-4.65 10.33 -6.3 10.66 -8 11 C-8.33 12.65 -8.66 14.3 -9 16 C-11 13 -11 13 -10.625 9.8125 C-10.41875 8.884375 -10.2125 7.95625 -10 7 C-8.35 7.33 -6.7 7.66 -5 8 C-4.319375 6.2984375 -4.319375 6.2984375 -3.625 4.5625 C-2 1 -2 1 0 0 Z " fill="#E831C6" transform="translate(468,169)"/>
<path d="M0 0 C0 0.33 0 0.66 0 1 C-2.31 1.33 -4.62 1.66 -7 2 C-7 2.66 -7 3.32 -7 4 C-8.32 4.33 -9.64 4.66 -11 5 C-11.33 6.32 -11.66 7.64 -12 9 C-13.32 9.33 -14.64 9.66 -16 10 C-14.86334902 6.02172159 -13.05649681 3.51937866 -9.796875 0.9375 C-6.54384838 -0.75973128 -3.59295121 -0.30973717 0 0 Z " fill="#AF4087" transform="translate(463,155)"/>
<path d="M0 0 C0.66 0 1.32 0 2 0 C2 0.66 2 1.32 2 2 C10.91 1.67 19.82 1.34 29 1 C28.67 1.99 28.34 2.98 28 4 C14.14 3.505 14.14 3.505 0 3 C0 2.01 0 1.02 0 0 Z " fill="#A2A2A0" transform="translate(120,218)"/>
<path d="M0 0 C0.99 0.33 1.98 0.66 3 1 C1.4027394 2.81901911 -0.2021871 4.63009734 -1.8125 6.4375 C-2.26431641 6.95376953 -2.71613281 7.47003906 -3.18164062 8.00195312 C-5.43034335 10.51327806 -6.74549181 11.91516394 -10 13 C-10.33 12.01 -10.66 11.02 -11 10 C-9.68 10 -8.36 10 -7 10 C-7 8.68 -7 7.36 -7 6 C-6.01 6 -5.02 6 -4 6 C-4 4.68 -4 3.36 -4 2 C-2.68 2 -1.36 2 0 2 C0 1.34 0 0.68 0 0 Z " fill="#580E7F" transform="translate(423,230)"/>
<path d="M0 0 C0.33 0.66 0.66 1.32 1 2 C-0.14995874 5.44987623 -1.45059577 6.45059577 -4 9 C-5.73709584 11.28980816 -7.36328008 13.635849 -9 16 C-10.33332095 13.3333581 -9.67102033 11.83319697 -9 9 C-8.34 9 -7.68 9 -7 9 C-6.67 8.01 -6.34 7.02 -6 6 C-4.58984375 4.39453125 -4.58984375 4.39453125 -2.9375 2.8125 C-2.38964844 2.28269531 -1.84179688 1.75289062 -1.27734375 1.20703125 C-0.85582031 0.80871094 -0.43429687 0.41039062 0 0 Z " fill="#62137A" transform="translate(436,214)"/>
<path d="M0 0 C5.04395895 3.51548654 8.37975847 8.11736877 12 13 C11.01 13.495 11.01 13.495 10 14 C9.34 13.34 8.68 12.68 8 12 C7.01 11.34 6.02 10.68 5 10 C5 9.34 5 8.68 5 8 C4.01 8 3.02 8 2 8 C1.34 5.36 0.68 2.72 0 0 Z " fill="#59186D" transform="translate(454,204)"/>
<path d="M0 0 C0.66 0 1.32 0 2 0 C1.1875 3.4375 1.1875 3.4375 0 7 C-0.99 7.33 -1.98 7.66 -3 8 C-4.68762851 9.6454378 -6.3540349 11.31288577 -8 13 C-8.99 13.66 -9.98 14.32 -11 15 C-10.67 13.68 -10.34 12.36 -10 11 C-9.34 11 -8.68 11 -8 11 C-8 10.34 -8 9.68 -8 9 C-7.01 9 -6.02 9 -5 9 C-4.5978125 7.7934375 -4.5978125 7.7934375 -4.1875 6.5625 C-3.795625 5.716875 -3.40375 4.87125 -3 4 C-2.01 3.67 -1.02 3.34 0 3 C0 2.01 0 1.02 0 0 Z " fill="#4F008A" transform="translate(452,207)"/>
<path d="M0 0 C0.33 0 0.66 0 1 0 C1.25 5.625 1.25 5.625 -1 9 C-1.29991069 11.58885171 -1.50865225 14.09149082 -1.625 16.6875 C-1.66367188 17.38939453 -1.70234375 18.09128906 -1.7421875 18.81445312 C-1.8362334 20.54254655 -1.9191968 22.27123675 -2 24 C-4 22 -4 22 -4.265625 19.86328125 C-4.22125527 12.61992351 -2.83698777 6.68718545 0 0 Z " fill="#838382" transform="translate(161,190)"/>
<path d="M0 0 C1.68762851 1.6454378 3.3540349 3.31288577 5 5 C5 5.33 5 5.66 5 6 C3.35 6 1.7 6 0 6 C-0.33 6.99 -0.66 7.98 -1 9 C-1.99 9.33 -2.98 9.66 -4 10 C-4 5.80285329 -2.97903734 2.97903734 0 0 Z " fill="#3C0969" transform="translate(450,198)"/>
<path d="M0 0 C0.33 0.66 0.66 1.32 1 2 C1.99 2.33 2.98 2.66 4 3 C4 3.99 4 4.98 4 6 C4.66 6 5.32 6 6 6 C6.33 7.98 6.66 9.96 7 12 C2.55092795 10.51697598 0.25420608 6.91714499 -2 3 C-2 2.34 -2 1.68 -2 1 C-1.34 0.67 -0.68 0.34 0 0 Z " fill="#74148E" transform="translate(408,181)"/>
<path d="M0 0 C1.25425781 0.01804688 2.50851562 0.03609375 3.80078125 0.0546875 C5.22970703 0.08949219 5.22970703 0.08949219 6.6875 0.125 C6.6875 0.455 6.6875 0.785 6.6875 1.125 C5.47513672 1.18107422 5.47513672 1.18107422 4.23828125 1.23828125 C3.16964844 1.30402344 2.10101563 1.36976563 1 1.4375 C-0.05574219 1.49550781 -1.11148437 1.55351562 -2.19921875 1.61328125 C-6.54522841 2.3276191 -9.22783393 4.04033393 -12.3125 7.125 C-13.3025 7.125 -14.2925 7.125 -15.3125 7.125 C-15.3125 5.475 -15.3125 3.825 -15.3125 2.125 C-14.3225 2.125 -13.3325 2.125 -12.3125 2.125 C-11.57644531 1.79757813 -10.84039062 1.47015625 -10.08203125 1.1328125 C-6.5953325 -0.1359721 -3.69979303 -0.06915501 0 0 Z " fill="#B1B0AF" transform="translate(326.3125,175.875)"/>
<path d="M0 0 C2.0625 0.4375 2.0625 0.4375 4 1 C3.67566492 6.35152885 0.50295176 9.28280043 -3 13 C-4.125 9.25 -4.125 9.25 -3 7 C-2.01 7 -1.02 7 0 7 C0.33 5.35 0.66 3.7 1 2 C0.34 1.67 -0.32 1.34 -1 1 C-0.67 0.67 -0.34 0.34 0 0 Z " fill="#C32EB3" transform="translate(453,186)"/>
<path d="M0 0 C0.33 0.66 0.66 1.32 1 2 C1.66 2.33 2.32 2.66 3 3 C2.45730469 3.37511719 1.91460937 3.75023437 1.35546875 4.13671875 C-2.84212825 7.13932417 -5.38278512 9.51334591 -8 14 C-10.6875 15.3125 -10.6875 15.3125 -13 16 C-10.83512566 11.79759687 -8.00533343 8.89509559 -4.65234375 5.6484375 C-2.89248437 3.89273854 -1.39786811 2.0556884 0 0 Z " fill="#7E05B1" transform="translate(428,175)"/>
<path d="M0 0 C0 3.23655184 -0.6550847 4.78752639 -2 7.6875 C-2.556875 8.89986328 -2.556875 8.89986328 -3.125 10.13671875 C-3.41375 10.75160156 -3.7025 11.36648437 -4 12 C-5.32 12 -6.64 12 -8 12 C-8 12.66 -8 13.32 -8 14 C-8.66 14 -9.32 14 -10 14 C-8.43632643 10.47761953 -6.30504111 7.72876006 -3.875 4.75 C-3.15054687 3.85796875 -2.42609375 2.9659375 -1.6796875 2.046875 C-0.84824219 1.03367188 -0.84824219 1.03367188 0 0 Z " fill="#320A62" transform="translate(395,228)"/>
<path d="M0 0 C0.75 1.625 0.75 1.625 1 4 C-1.96296296 9.59670782 -1.96296296 9.59670782 -5.25 10.875 C-5.8275 10.91625 -6.405 10.9575 -7 11 C-7.33 10.01 -7.66 9.02 -8 8 C-5.33333333 5.33333333 -2.66666667 2.66666667 0 0 Z " fill="#D62ED4" transform="translate(463,231)"/>
<path d="M0 0 C2.64 0.99 5.28 1.98 8 3 C8 3.66 8 4.32 8 5 C8.99 5.33 9.98 5.66 11 6 C11 6.66 11 7.32 11 8 C10.01 8.33 9.02 8.66 8 9 C7.67 7.35 7.34 5.7 7 4 C6.34 4 5.68 4 5 4 C4.67 4.66 4.34 5.32 4 6 C3.01 6.33 2.02 6.66 1 7 C1.33 5.35 1.66 3.7 2 2 C1.34 2 0.68 2 0 2 C0 1.34 0 0.68 0 0 Z " fill="#BE41AE" transform="translate(467,226)"/>
<path d="M0 0 C0.66 0.33 1.32 0.66 2 1 C1.375 3.375 1.375 3.375 0 6 C-3.125 7.3125 -3.125 7.3125 -6 8 C-6 6.68 -6 5.36 -6 4 C-3 1.75 -3 1.75 0 0 Z " fill="#B819C8" transform="translate(457,228)"/>
<path d="M0 0 C0.99 0 1.98 0 3 0 C3.33 1.32 3.66 2.64 4 4 C0.80009492 6.74277578 -2.00499382 8.6302836 -6 10 C-4.52307692 5.32307692 -4.52307692 5.32307692 -1.875 3.6875 C-1.25625 3.460625 -0.6375 3.23375 0 3 C0 2.01 0 1.02 0 0 Z " fill="#AA09D2" transform="translate(421,200)"/>
<path d="M0 0 C4.94151304 2.40016348 7.04331244 5.52273027 10 10 C8.68 10.33 7.36 10.66 6 11 C5.67 10.01 5.34 9.02 5 8 C4.34 8 3.68 8 3 8 C2.67 6.02 2.34 4.04 2 2 C1.34 2 0.68 2 0 2 C0 1.34 0 0.68 0 0 Z " fill="#B539AB" transform="translate(415,156)"/>
<path d="M0 0 C0.74507813 0.00902344 1.49015625 0.01804688 2.2578125 0.02734375 C4.08868059 0.05081642 5.91938238 0.08668475 7.75 0.125 C7.75 0.455 7.75 0.785 7.75 1.125 C6.42935547 1.19847656 6.42935547 1.19847656 5.08203125 1.2734375 C3.33986328 1.38558594 3.33986328 1.38558594 1.5625 1.5 C0.41394531 1.56960937 -0.73460937 1.63921875 -1.91796875 1.7109375 C-5.04959117 2.10009574 -7.40285809 2.8059851 -10.25 4.125 C-10.25 4.785 -10.25 5.445 -10.25 6.125 C-11.9 5.795 -13.55 5.465 -15.25 5.125 C-10.6958092 0.11539012 -6.57802071 -0.15108528 0 0 Z " fill="#AFAEAF" transform="translate(364.25,175.875)"/>
<path d="M0 0 C2.38564077 0.57584432 4.66682784 1.22227595 7 2 C7.12375 2.721875 7.2475 3.44375 7.375 4.1875 C7.9904931 6.95721894 8.88444374 9.3970354 10 12 C8.33333333 10.33333333 6.66666667 8.66666667 5 7 C4.071875 6.113125 3.14375 5.22625 2.1875 4.3125 C0 2 0 2 0 0 Z " fill="#992C8F" transform="translate(396,170)"/>
<path d="M0 0 C1.1995243 2.39904859 1.73904456 4.32520673 2 7 C0.8125 8.875 0.8125 8.875 -1 10 C-3.1875 9.6875 -3.1875 9.6875 -5 9 C-4.42647107 5.12867972 -2.51295648 2.91827204 0 0 Z " fill="#460377" transform="translate(442,207)"/>
<path d="M0 0 C1.98 0.66 3.96 1.32 6 2 C5.59007812 2.47050781 5.18015625 2.94101563 4.7578125 3.42578125 C4.21898437 4.04839844 3.68015625 4.67101562 3.125 5.3125 C2.59132813 5.92738281 2.05765625 6.54226562 1.5078125 7.17578125 C-0.1640447 9.13498212 -0.1640447 9.13498212 -2 12 C-1.33333333 8 -0.66666667 4 0 0 Z " fill="#A611C5" transform="translate(432,210)"/>
<path d="M0 0 C2.97 0.495 2.97 0.495 6 1 C5.979375 1.78375 5.95875 2.5675 5.9375 3.375 C5.81315937 5.98114961 5.81315937 5.98114961 7 8 C4.03 7.505 4.03 7.505 1 7 C0.67 4.69 0.34 2.38 0 0 Z " fill="#E641DB" transform="translate(393,160)"/>
<path d="M0 0 C0.33 0.66 0.66 1.32 1 2 C0.67 2.66 0.34 3.32 0 4 C6.93 4 13.86 4 21 4 C21 4.33 21 4.66 21 5 C13.41 5 5.82 5 -2 5 C-2 2 -2 2 0 0 Z " fill="#26074C" transform="translate(384,242)"/>
<path d="M0 0 C0.66 0.33 1.32 0.66 2 1 C1.01 1.66 0.02 2.32 -1 3 C-0.67 2.01 -0.34 1.02 0 0 Z M-2 3 C-1.67 3.66 -1.34 4.32 -1 5 C-1.33 5.99 -1.66 6.98 -2 8 C-2.78375 8.103125 -3.5675 8.20625 -4.375 8.3125 C-7.33045181 8.77595022 -7.33045181 8.77595022 -9 12 C-8.45276317 8.62537285 -7.9451 6.91765 -6 4 C-3.875 3.3125 -3.875 3.3125 -2 3 Z " fill="#CB22CC" transform="translate(441,176)"/>
<path d="M0 0 C0 0.66 0 1.32 0 2 C-3.96 2 -7.92 2 -12 2 C-12 1.34 -12 0.68 -12 0 C-7.66726186 -0.92844389 -4.33273814 -0.92844389 0 0 Z " fill="#6407B7" transform="translate(409,243)"/>
<path d="M0 0 C0.75 1.75 0.75 1.75 1 4 C-0.4375 6.25 -0.4375 6.25 -3 8 C-5.75904254 8.33634042 -8.20306377 8.18646242 -11 8 C-9 6 -9 6 -5.5 5.125 C-1.93623752 4.37666455 -1.93623752 4.37666455 -0.5625 1.875 C-0.376875 1.25625 -0.19125 0.6375 0 0 Z " fill="#B4B2B1" transform="translate(268,215)"/>
<path d="M0 0 C0.87491004 2.4497481 1.12900603 3.63448293 0.25 6.125 C-1 8 -1 8 -4 10 C-4.33 10.99 -4.66 11.98 -5 13 C-6.32 12.67 -7.64 12.34 -9 12 C-8.51789063 11.46890625 -8.03578125 10.9378125 -7.5390625 10.390625 C-6.90742188 9.68421875 -6.27578125 8.9778125 -5.625 8.25 C-4.68527344 7.20585937 -4.68527344 7.20585937 -3.7265625 6.140625 C-2.12494817 4.15491312 -1.03479932 2.32045907 0 0 Z " fill="#A11BC1" transform="translate(431,184)"/>
<path d="M0 0 C1.65 0 3.3 0 5 0 C4.67 1.32 4.34 2.64 4 4 C2.68 4.33 1.36 4.66 0 5 C-0.33 4.01 -0.66 3.02 -1 2 C-0.67 1.34 -0.34 0.68 0 0 Z M-1 5 C-0.67 5.66 -0.34 6.32 0 7 C-0.66 6.67 -1.32 6.34 -2 6 C-1.67 5.67 -1.34 5.34 -1 5 Z M-4 7 C-3.34 7 -2.68 7 -2 7 C-2 7.66 -2 8.32 -2 9 C-2.66 9 -3.32 9 -4 9 C-4 8.34 -4 7.68 -4 7 Z " fill="#BE24CB" transform="translate(420,167)"/>
<path d="M0 0 C6.93 0.495 6.93 0.495 14 1 C14 1.33 14 1.66 14 2 C11.36 2 8.72 2 6 2 C5.67 3.32 5.34 4.64 5 6 C4.67 5.34 4.34 4.68 4 4 C1.98330173 2.86649466 1.98330173 2.86649466 0 2 C0 1.34 0 0.68 0 0 Z " fill="#EB62D1" transform="translate(387,155)"/>
<path d="M0 0 C0.66 0.33 1.32 0.66 2 1 C1.34 2.98 0.68 4.96 0 7 C-4.455 7.495 -4.455 7.495 -9 8 C-8.443125 7.608125 -7.88625 7.21625 -7.3125 6.8125 C-4.6564795 4.7307542 -2.35135049 2.41666578 0 0 Z " fill="#F179CB" transform="translate(476,238)"/>
<path d="M0 0 C0.33 0.66 0.66 1.32 1 2 C0.34 2 -0.32 2 -1 2 C-1.2475 2.639375 -1.495 3.27875 -1.75 3.9375 C-3 6 -3 6 -5 6.6875 C-5.66 6.790625 -6.32 6.89375 -7 7 C-7.99 7.495 -7.99 7.495 -9 8 C-9 7.01 -9 6.02 -9 5 C-7.68 4.67 -6.36 4.34 -5 4 C-5 3.01 -5 2.02 -5 1 C-3.35 0.67 -1.7 0.34 0 0 Z " fill="#950ABB" transform="translate(459,220)"/>
<path d="M0 0 C0 3.81094059 -1.00717021 5.77024137 -3 9 C-5.61328125 10.18359375 -5.61328125 10.18359375 -8 11 C-7.04454634 9.53977837 -6.08553322 8.08188532 -5.125 6.625 C-4.59132813 5.81289062 -4.05765625 5.00078125 -3.5078125 4.1640625 C-2 2 -2 2 0 0 Z " fill="#8C2573" transform="translate(446,165)"/>
<path d="M0 0 C5.78461538 4.43076923 5.78461538 4.43076923 6.875 7.3125 C6.936875 8.1478125 6.936875 8.1478125 7 9 C5.35 9 3.7 9 2 9 C1.855625 8.2575 1.71125 7.515 1.5625 6.75 C1.09812508 4.47972261 0.58136431 2.24240521 0 0 Z " fill="#C083A3" transform="translate(480,237)"/>
<path d="M0 0 C0.66 0 1.32 0 2 0 C1.5206753 4.31392226 0.2542015 6.16569547 -3 9 C-3.33 8.01 -3.66 7.02 -4 6 C-2.1875 2.8125 -2.1875 2.8125 0 0 Z " fill="#E74ECF" transform="translate(472,230)"/>
<path d="M0 0 C1.875 0.25 1.875 0.25 4 1 C5.0625 2.875 5.0625 2.875 6 5 C7.5412312 6.70921589 7.5412312 6.70921589 9 8 C8.34 8.66 7.68 9.32 7 10 C5.83043409 8.52312468 4.66441854 7.04343707 3.5 5.5625 C2.8503125 4.73878906 2.200625 3.91507813 1.53125 3.06640625 C0 1 0 1 0 0 Z " fill="#451563" transform="translate(436,221)"/>
<path d="M0 0 C0 3 0 3 -2 6 C-2.66 6 -3.32 6 -4 6 C-4.33 7.32 -4.66 8.64 -5 10 C-6.32 10.33 -7.64 10.66 -9 11 C-8.34 10.01 -7.68 9.02 -7 8 C-6.34 8 -5.68 8 -5 8 C-4.9175 7.236875 -4.835 6.47375 -4.75 5.6875 C-3.85384206 2.47626739 -2.78388975 1.70625501 0 0 Z " fill="#6E03A4" transform="translate(455,213)"/>
<path d="M0 0 C3 2 3 2 3.6875 5.125 C3.790625 6.07375 3.89375 7.0225 4 8 C1.69 7.67 -0.62 7.34 -3 7 C-2.34 6.34 -1.68 5.68 -1 5 C-0.35232207 2.42938689 -0.35232207 2.42938689 0 0 Z " fill="#9320A3" transform="translate(425,167)"/>
<path d="M0 0 C0.33 0 0.66 0 1 0 C1.36630156 3.93774177 1.30233203 5.56539771 -1 8.875 C-1.66 9.57625 -2.32 10.2775 -3 11 C-3.33 9.35 -3.66 7.7 -4 6 C-3.34 6 -2.68 6 -2 6 C-2 5.01 -2 4.02 -2 3 C-1.34 3 -0.68 3 0 3 C0 2.01 0 1.02 0 0 Z " fill="#C24493" transform="translate(471,166)"/>
<path d="M0 0 C0 3.38023517 -0.87455622 5.83468937 -2 9 C-3.65 9.33 -5.3 9.66 -7 10 C-6.02223933 8.51990357 -5.0427506 7.04094856 -4.0625 5.5625 C-3.51722656 4.73878906 -2.97195313 3.91507813 -2.41015625 3.06640625 C-1 1 -1 1 0 0 Z " fill="#5F1379" transform="translate(415,203)"/>
<path d="M0 0 C1.32 0 2.64 0 4 0 C4 0.66 4 1.32 4 2 C4.99 2.33 5.98 2.66 7 3 C6.67 4.65 6.34 6.3 6 8 C5.01 8 4.02 8 3 8 C3 6.68 3 5.36 3 4 C1.58022091 1.77256213 1.58022091 1.77256213 0 0 Z " fill="#4A0C61" transform="translate(413,193)"/>
<path d="M0 0 C1.33333333 1.33333333 2.66666667 2.66666667 4 4 C4.556875 4.53625 5.11375 5.0725 5.6875 5.625 C7 7 7 7 8 9 C6.68 9.33 5.36 9.66 4 10 C3.67 8.68 3.34 7.36 3 6 C2.34 6 1.68 6 1 6 C0.67 4.02 0.34 2.04 0 0 Z " fill="#661A7A" transform="translate(428,171)"/>
<path d="M0 0 C0.33 0 0.66 0 1 0 C1 1.65 1 3.3 1 5 C0.01 5.33 -0.98 5.66 -2 6 C-1.67 6.99 -1.34 7.98 -1 9 C-1.66 9 -2.32 9 -3 9 C-3.33 7.35 -3.66 5.7 -4 4 C-3.34 4 -2.68 4 -2 4 C-1.34 2.68 -0.68 1.36 0 0 Z " fill="#CD2AC6" transform="translate(457,233)"/>
<path d="M0 0 C0.66 0.33 1.32 0.66 2 1 C0.9802693 4.77300358 0.34127338 5.80206144 -3.125 7.8125 C-4.07375 8.204375 -5.0225 8.59625 -6 9 C-4.47291037 5.56404834 -2.40072955 2.88087546 0 0 Z " fill="#4B0E6A" transform="translate(406,214)"/>
<path d="M0 0 C1 2 1 2 0.8125 3.9375 C-0.22687271 6.57590764 -1.6538835 7.48637645 -4 9 C-4.66 8.67 -5.32 8.34 -6 8 C-4.768606 4.30581799 -2.79208646 2.64890254 0 0 Z " fill="#9819B0" transform="translate(421,197)"/>
<path d="M0 0 C1.32 0.33 2.64 0.66 4 1 C3.25 2.9375 3.25 2.9375 2 5 C-0.125 5.75 -0.125 5.75 -2 6 C-1.49396008 3.83125748 -1.00016187 2.00032373 0 0 Z " fill="#DB64B9" transform="translate(476,234)"/>
<path d="M0 0 C-0.33 1.32 -0.66 2.64 -1 4 C-1.99 4 -2.98 4 -4 4 C-4 4.66 -4 5.32 -4 6 C-4.66 6 -5.32 6 -6 6 C-5.67 4.35 -5.34 2.7 -5 1 C-2 0 -2 0 0 0 Z " fill="#9011C1" transform="translate(427,226)"/>
<path d="M0 0 C0.66 0.33 1.32 0.66 2 1 C1.1875 2.9375 1.1875 2.9375 0 5 C-0.99 5.33 -1.98 5.66 -3 6 C-3.73323796 8.01508358 -3.73323796 8.01508358 -4 10 C-4.33 9.34 -4.66 8.68 -5 8 C-4.2578125 6.30859375 -4.2578125 6.30859375 -3.125 4.4375 C-2.75632813 3.81746094 -2.38765625 3.19742188 -2.0078125 2.55859375 C-1 1 -1 1 0 0 Z " fill="#B2B1B1" transform="translate(231,186)"/>
<path d="M0 0 C0.33 0.99 0.66 1.98 1 3 C0.34 3 -0.32 3 -1 3 C-0.67 4.32 -0.34 5.64 0 7 C-0.99 7 -1.98 7 -3 7 C-3.33 7.99 -3.66 8.98 -4 10 C-3.38461538 3.47692308 -3.38461538 3.47692308 -1.4375 1.0625 C-0.7259375 0.5365625 -0.7259375 0.5365625 0 0 Z " fill="#EE42B8" transform="translate(468,169)"/>
<path d="M0 0 C0.33 0.99 0.66 1.98 1 3 C0.01 3.495 0.01 3.495 -1 4 C-0.67 2.68 -0.34 1.36 0 0 Z M-3 4 C-2.34 4 -1.68 4 -1 4 C-1.66 5.98 -2.32 7.96 -3 10 C-3.66 10 -4.32 10 -5 10 C-4.125 5.125 -4.125 5.125 -3 4 Z " fill="#BD12CD" transform="translate(431,188)"/>
<path d="M0 0 C0.33 0 0.66 0 1 0 C1 1.65 1 3.3 1 5 C-0.65 5.66 -2.3 6.32 -4 7 C-2.92598892 4.08482708 -2.22189824 2.22189824 0 0 Z " fill="#922F77" transform="translate(451,158)"/>
<path d="M0 0 C0 0.66 0 1.32 0 2 C-0.66 2 -1.32 2 -2 2 C-2.99 3.485 -2.99 3.485 -4 5 C-4.66 5 -5.32 5 -6 5 C-6 4.01 -6 3.02 -6 2 C-6.66 1.67 -7.32 1.34 -8 1 C-5.29120665 -0.35439668 -2.99066732 -0.06501451 0 0 Z " fill="#EF7CA8" transform="translate(483,155)"/>
<path d="M0 0 C3.39914975 1.13304992 4.05254451 2.12518475 6 5 C4.02 5 2.04 5 0 5 C0 3.35 0 1.7 0 0 Z " fill="#5607B5" transform="translate(388,240)"/>
<path d="M0 0 C1.65 0.33 3.3 0.66 5 1 C5 1.99 5 2.98 5 4 C3.35 4.33 1.7 4.66 0 5 C-0.33 4.34 -0.66 3.68 -1 3 C-0.67 2.01 -0.34 1.02 0 0 Z " fill="#9B09CB" transform="translate(424,219)"/>
<path d="M0 0 C0.33 0.66 0.66 1.32 1 2 C-0.8125 4 -0.8125 4 -3 6 C-3.99 6 -4.98 6 -6 6 C-5.8125 4.125 -5.8125 4.125 -5 2 C-2.4375 0.75 -2.4375 0.75 0 0 Z " fill="#BA2FB2" transform="translate(442,174)"/>
<path d="M0 0 C0.99 0.33 1.98 0.66 3 1 C2.34 2.65 1.68 4.3 1 6 C0.34 6 -0.32 6 -1 6 C-1.33 6.66 -1.66 7.32 -2 8 C-2.125 5.125 -2.125 5.125 -2 2 C-1.34 1.34 -0.68 0.68 0 0 Z " fill="#AE5B7D" transform="translate(480,156)"/>
<path d="M0 0 C0.66 0.99 1.32 1.98 2 3 C1.67 3.99 1.34 4.98 1 6 C-2.3 6 -5.6 6 -9 6 C-9 5.67 -9 5.34 -9 5 C-6.36 4.67 -3.72 4.34 -1 4 C-0.67 2.68 -0.34 1.36 0 0 Z " fill="#F69FCF" transform="translate(481,240)"/>
<path d="M0 0 C0.33 0 0.66 0 1 0 C1.25 2.75 1.25 2.75 1 6 C-1 8.375 -1 8.375 -3 10 C-2.67 7.69 -2.34 5.38 -2 3 C-1.34 3 -0.68 3 0 3 C0 2.01 0 1.02 0 0 Z " fill="#681495" transform="translate(429,220)"/>
<path d="M0 0 C1.32 0.33 2.64 0.66 4 1 C4.33 3.31 4.66 5.62 5 8 C2.27573689 5.64722731 1.1858237 3.37503669 0 0 Z " fill="#B14497" transform="translate(389,159)"/>
<path d="M0 0 C1.32 0.33 2.64 0.66 4 1 C3.34 2.32 2.68 3.64 2 5 C0.35 5 -1.3 5 -3 5 C-2.01 4.67 -1.02 4.34 0 4 C0 2.68 0 1.36 0 0 Z " fill="#4C0987" transform="translate(409,241)"/>
<path d="M0 0 C0.66 0 1.32 0 2 0 C1.67 1.65 1.34 3.3 1 5 C-0.32 5.33 -1.64 5.66 -3 6 C-2.01 4.02 -1.02 2.04 0 0 Z M-5 6 C-4.01 6.495 -4.01 6.495 -3 7 C-3.99 7.495 -3.99 7.495 -5 8 C-5 7.34 -5 6.68 -5 6 Z " fill="#7F02A8" transform="translate(456,213)"/>
<path d="M0 0 C0.99 0.33 1.98 0.66 3 1 C2.34 2.98 1.68 4.96 1 7 C0.01 7 -0.98 7 -2 7 C-1.34 4.69 -0.68 2.38 0 0 Z " fill="#980DC4" transform="translate(414,206)"/>
<path d="M0 0 C0.33 0 0.66 0 1 0 C1.36630156 3.93774177 1.30233203 5.56539771 -1 8.875 C-1.66 9.57625 -2.32 10.2775 -3 11 C-2.44894091 7.0507432 -1.61064629 3.65079826 0 0 Z " fill="#8E8D8D" transform="translate(161,190)"/>
<path d="M0 0 C1.98 0.495 1.98 0.495 4 1 C2.35 2.65 0.7 4.3 -1 6 C-0.67 4.02 -0.34 2.04 0 0 Z " fill="#A424A1" transform="translate(450,193)"/>
<path d="M0 0 C0.33 0.99 0.66 1.98 1 3 C-0.98 3.99 -0.98 3.99 -3 5 C-3 5.66 -3 6.32 -3 7 C-3.99 6.67 -4.98 6.34 -6 6 C-4.02 4.02 -2.04 2.04 0 0 Z " fill="#B616D1" transform="translate(415,176)"/>
<path d="M0 0 C1.65 1.65 3.3 3.3 5 5 C3.68 5.33 2.36 5.66 1 6 C0.4465236 3.92446352 0 2.15634036 0 0 Z " fill="#9E319B" transform="translate(420,161)"/>
</svg>
